<?xml version="1.0" encoding="UTF-8" standalone="no"?>
<!-- Created with Inkscape (http://www.inkscape.org/) -->

<svg
   version="1.1"
   id="svg2"
   width="39.996799"
   height="40"
   viewBox="0 0 39.996799 40"
   sodipodi:docname="ILTECH_red-white_stacked_30x30.ai"
   xmlns:inkscape="http://www.inkscape.org/namespaces/inkscape"
   xmlns:sodipodi="http://sodipodi.sourceforge.net/DTD/sodipodi-0.dtd"
   xmlns="http://www.w3.org/2000/svg"
   xmlns:svg="http://www.w3.org/2000/svg">
  <defs
     id="defs6">
    <clipPath
       clipPathUnits="userSpaceOnUse"
       id="clipPath18">
      <path
         d="M 0,30 H 29.998 V 0 H 0 Z"
         id="path16" />
    </clipPath>
  </defs>
  <sodipodi:namedview
     id="namedview4"
     pagecolor="#ffffff"
     bordercolor="#000000"
     borderopacity="0.25"
     inkscape:showpageshadow="2"
     inkscape:pageopacity="0.0"
     inkscape:pagecheckerboard="0"
     inkscape:deskcolor="#d1d1d1" />
  <g
     id="g8"
     inkscape:groupmode="layer"
     inkscape:label="ILTECH_red-white_stacked_30x30"
     transform="matrix(1.3333333,0,0,-1.3333333,0,40)">
    <path
       d="M 0,0 H 29.998 V 30 H 0 Z"
       style="fill:#ffffff;fill-opacity:1;fill-rule:nonzero;stroke:none"
       id="path10" />
    <g
       id="g12">
      <g
         id="g14"
         clip-path="url(#clipPath18)">
        <path
           d="M 2.584,21.238 H 1.5 v -5.555 h 1.084 z m 4.432,-4.587 h -2.52 v 4.587 H 3.411 v -5.555 h 3.605 z m 4.017,0 h -2.52 v 4.587 H 7.429 v -5.555 h 3.604 z m 1.498,4.587 h -1.084 v -5.555 h 1.084 z m 5.078,0 h -1.084 v -3.402 l -2.2,3.402 h -0.967 v -5.555 h 1.084 v 3.406 l 2.203,-3.406 h 0.964 z m 4.673,-1.522 c -0.077,0.396 -0.239,0.716 -0.483,0.96 -0.406,0.406 -0.905,0.609 -1.498,0.609 -0.593,0 -1.095,-0.203 -1.506,-0.609 -0.249,-0.244 -0.411,-0.564 -0.483,-0.96 -0.042,-0.223 -0.063,-0.642 -0.063,-1.256 0,-0.624 0.021,-1.042 0.063,-1.255 0.078,-0.401 0.239,-0.721 0.483,-0.96 0.411,-0.406 0.913,-0.608 1.506,-0.608 0.588,0 1.087,0.202 1.498,0.608 0.255,0.25 0.416,0.569 0.483,0.96 0.047,0.27 0.071,0.689 0.071,1.255 0,0.604 -0.024,1.022 -0.071,1.256 m -1.224,-2.737 c -0.187,-0.25 -0.44,-0.375 -0.757,-0.375 -0.567,0 -0.884,0.348 -0.952,1.045 -0.016,0.182 -0.021,0.453 -0.016,0.811 v 0.812 c 0.084,0.697 0.404,1.045 0.96,1.045 0.577,0 0.896,-0.348 0.959,-1.045 0.011,-0.115 0.016,-0.25 0.016,-0.406 V 18.46 c 0,-0.8 -0.07,-1.294 -0.21,-1.481 m 3.019,4.259 h -1.084 v -5.555 h 1.084 z m 2.933,-2.309 -0.656,0.093 c -0.457,0.062 -0.686,0.268 -0.686,0.617 0,0.234 0.089,0.413 0.266,0.538 0.151,0.109 0.35,0.164 0.595,0.164 0.49,0 0.871,-0.128 1.142,-0.383 l 0.688,0.679 c -0.447,0.432 -1.045,0.648 -1.794,0.648 -0.551,0 -1.003,-0.141 -1.357,-0.421 -0.385,-0.302 -0.578,-0.723 -0.578,-1.263 0,-0.899 0.492,-1.417 1.475,-1.552 l 0.671,-0.096 c 0.442,-0.062 0.663,-0.283 0.663,-0.663 0,-0.457 -0.328,-0.686 -0.983,-0.686 -0.582,0 -1.03,0.156 -1.342,0.468 L 24.412,16.37 c 0.489,-0.489 1.165,-0.733 2.028,-0.733 0.573,0 1.046,0.134 1.42,0.405 0.427,0.302 0.64,0.728 0.64,1.28 0,0.93 -0.497,1.466 -1.49,1.607"
           style="fill:#cc0000;fill-opacity:1;fill-rule:nonzero;stroke:none"
           id="path20" />
        <g
           id="g22"
           transform="translate(10.4517,14.3169)">
          <path
             d="m 0,0 h -3.986 v -0.967 h 1.451 v -4.588 h 1.084 v 4.588 H 0 Z M 4.072,-4.587 H 1.498 v 1.349 H 3.69 v 0.967 H 1.498 v 1.304 H 4.072 V 0 H 0.414 v -5.555 h 3.658 z m 3.394,0.741 C 7.336,-4.372 7.024,-4.634 6.53,-4.634 c -0.567,0 -0.884,0.348 -0.952,1.045 -0.011,0.11 -0.016,0.214 -0.016,0.312 v 0.5 c 0,0.795 0.071,1.292 0.211,1.489 0.177,0.245 0.429,0.367 0.757,0.367 0.499,0 0.811,-0.263 0.936,-0.787 h 1.1 C 8.472,-1.157 8.248,-0.727 7.891,-0.417 7.535,-0.108 7.079,0.047 6.522,0.047 5.934,0.047 5.435,-0.156 5.024,-0.562 4.774,-0.806 4.613,-1.126 4.541,-1.521 4.499,-1.745 4.478,-2.164 4.478,-2.777 c 0,-0.624 0.021,-1.043 0.063,-1.256 0.078,-0.396 0.239,-0.716 0.483,-0.96 0.406,-0.405 0.905,-0.609 1.498,-0.609 0.551,0 1.008,0.157 1.369,0.469 0.361,0.312 0.587,0.741 0.675,1.287 z M 13.083,0 H 11.999 V -2.271 H 10.118 V 0 H 9.034 v -5.555 h 1.084 v 2.317 h 1.881 v -2.317 h 1.084 z"
             style="fill:#cc0000;fill-opacity:1;fill-rule:nonzero;stroke:none"
             id="path24" />
        </g>
      </g>
    </g>
  </g>
</svg>
