<svg xmlns="http://www.w3.org/2000/svg" fill="none" viewBox="0 0 83.268 83.77089783281734" style="max-height: 500px" width="83.268" height="83.77089783281734">
<path fill="white" d="M101.28 49.534C101.28 54.4759 104.527 57.6736 108.79 57.6736C113.054 57.6736 116.252 54.379 116.252 49.534V28.894H122.792V62.8094H116.3V60.3869C114.023 62.3249 111.116 63.4877 107.967 63.4877C100.408 63.4877 94.7396 58.1097 94.7396 49.97V28.894H101.28V49.534Z"/>
<path fill="white" d="M139.257 62.8094L124.964 28.894H132.183L142.697 55.0573L153.211 28.894H160.139L145.847 62.8094H139.257Z"/>
<path fill="white" d="M162.311 62.8094V28.894H183.678V34.6112H168.852V42.9931H183.193V48.5649H168.852V57.0922H183.678V62.8094H162.311Z"/>
<path fill="white" d="M206.552 28.894L220.844 62.8094H213.868L210.525 54.5244H195.796L192.452 62.8094H185.669L199.962 28.894H206.552ZM198.024 48.8556H208.247L203.16 36.1616L198.024 48.8556Z"/>
<path fill="white" d="M242.18 28.894L256.473 62.8094H249.496L246.153 54.5244H231.424L228.081 62.8094H221.298L235.59 28.894H242.18ZM233.652 48.8556H243.875L238.788 36.1616L233.652 48.8556Z"/>
<ellipse fill="#2C3A64" ry="41.0691" rx="40.7693" cy="41.9309" cx="41.5484"/>
<ellipse fill="#C0D8FB" ry="36.1382" rx="35.8744" cy="41.9309" cx="41.5484"/>
<ellipse fill="white" ry="31.0776" rx="30.8507" cy="41.9309" cx="41.5484"/>
<ellipse fill="#0043E5" ry="24.8491" rx="24.6677" cy="41.9309" cx="41.5484"/>
<path fill="#2C3A64" d="M20.7761 55.3387C22.4438 45.2637 31.138 37.584 41.6128 37.584C52.0319 37.584 60.6892 45.1822 62.4223 55.178C58.0532 62.1495 50.3376 66.78 41.5484 66.78C32.8269 66.78 25.1625 62.2205 20.7761 55.3387Z" clip-rule="evenodd" fill-rule="evenodd"/>
<ellipse fill="#C0D8FB" ry="19.5289" rx="19.3864" cy="41.9309" cx="41.5484"/>
<path fill="#AEC3FF" d="M23.2092 48.2787C26.8351 41.8164 33.7183 37.4542 41.6129 37.4542C49.4492 37.4542 56.2889 41.7523 59.9357 48.1359C57.3616 55.8796 50.1019 61.4598 41.5484 61.4598C33.0476 61.4598 25.8246 55.9481 23.2092 48.2787Z" clip-rule="evenodd" fill-rule="evenodd"/>
<ellipse fill="#0043E5" ry="13.4302" rx="13.3321" cy="41.9309" cx="41.5484"/>
<path fill="#2A375F" d="M28.218 42.1483C31.8634 39.1338 36.5284 37.3244 41.6128 37.3244C46.6382 37.3244 51.2537 39.092 54.8801 42.0437C54.82 49.4091 48.8742 55.3611 41.5484 55.3611C34.2574 55.3611 28.3333 49.4653 28.218 42.1483Z" clip-rule="evenodd" fill-rule="evenodd"/>
<ellipse fill="#2C3A64" ry="9.01833" rx="8.9525" cy="41.9309" cx="41.5484"/>
<ellipse fill="#242F51" ry="4.99577" rx="4.9593" cy="41.9309" cx="41.5484"/>
<path fill-opacity="0.15" fill="black" d="M8.92871 38.9025C8.72261 35.6326 10.818 34.6853 11.8914 34.6205L39.4574 51.8786L77.3284 21.904L79.1318 25.9265C70.3725 32.7389 54.3997 46.753 50.9217 51.8786C46.8512 55.979 45.0178 63.5786 44.6099 66.8659H41.5828L11.2473 41.9519C10.0236 41.5626 9.04321 40.7192 8.92871 38.9025Z"/>
<path fill="#242F51" d="M73.9793 8.73329C76.0918 8.47377 78.3374 8.62516 79.1962 8.73329C79.1962 10.6797 79.1318 18.5302 79.1318 21.2552C79.003 22.2284 78.7247 22.855 77.8436 23.6557C71.9182 29.0408 59.8098 39.4865 55.3658 43.5739L45.576 56.8743L40.8743 62.5189C39.9082 61.5457 33.9055 56.6278 30.2472 52.5273C26.589 48.4269 15.3479 41.1517 10.7965 37.9942C9.33659 37.8861 11.0541 33.6862 10.7965 31.2467C10.5389 28.8072 12.4066 27.116 13.3727 26.5753C14.4891 25.7319 18.1517 24.9793 23.871 28.7163C29.5903 32.4534 36.4732 39.3134 39.1997 42.2763L44.6099 35.399L52.9827 26.0563L61.5488 17.9463C65.1556 14.5076 71.9183 8.53866 73.9793 8.73329Z"/>
<path fill="#0043E5" d="M73.9793 8.73329C76.0918 8.47377 78.3374 8.62516 79.1962 8.73329V16.1296C75.4606 18.8546 67.4742 25.2128 65.1556 27.7431C59.359 32.7389 52.6178 40.2001 48.6675 44.9364L41.1964 54.9279V57.2636C40.2303 56.2904 37.3835 53.3189 33.7252 49.2184C30.0669 45.118 20.0496 37.7779 15.4982 34.6204C14.0383 34.5123 11.0541 33.6862 10.7965 31.2467C10.5389 28.8072 12.4066 27.116 13.3727 26.5753C14.4891 25.7319 18.1517 24.9793 23.871 28.7163C29.5903 32.4534 36.4732 39.3134 39.1997 42.2763L44.6099 35.399L52.9827 26.0563L61.5488 17.9463C65.1556 14.5076 71.9183 8.53866 73.9793 8.73329Z"/>
<path fill="white" d="M73.7216 8.60359C74.8552 8.44787 77.8866 8.53871 79.2606 8.60359L65.7996 19.8927C63.0302 22.3582 58.5217 26.5105 54.9794 30.2735C52.7273 32.8039 44.6099 42.3412 41.132 46.2989V50.1917L35.0777 44.093L29.0235 37.9943C26.2541 35.3342 21.7456 32.3281 21.2303 31.8955C20.8439 31.5711 20.9727 31.2467 21.1015 31.117C21.9388 30.2735 22.5292 29.6896 23.3558 28.9759C23.8066 28.5867 24.1286 28.6213 24.5795 28.9759C29.2812 32.6741 35.593 37.9943 39.2642 42.3412C41.9693 37.7996 52.0811 26.5105 56.4607 22.8123L60.5827 18.7898C61.5918 17.8598 63.9319 15.6755 66.6369 13.4047C69.7929 10.4851 72.3047 8.79823 73.7216 8.60359Z"/>
</svg>